<svg width="37" height="28" viewBox="0 0 37 28" fill="none" xmlns="http://www.w3.org/2000/svg">
<path d="M36.9109 12.6378C35.915 4.92878 26.8361 -0.702837 16.6517 0.0711235C6.50519 0.84221 -0.903106 7.68164 0.089119 15.362C1.08134 23.0422 10.0998 28.6659 20.2517 27.9363C30.4411 27.2028 37.9068 20.3467 36.9109 12.6378ZM23.1209 3.30296C23.3468 3.30248 23.5155 3.33723 23.7256 3.38046L23.7711 3.38983C23.8532 3.70184 23.771 3.84685 23.5553 4.11242C23.1778 4.57729 22.7577 5.02238 22.3375 5.46754C21.5958 6.2533 20.8542 7.03924 20.346 7.93446C19.2442 9.87544 19.501 12.1394 19.7604 14.4271C19.9875 16.4293 20.2166 18.4496 19.5387 20.2874C18.7232 22.4983 16.676 23.9445 14.1127 25.0231C13.9705 25.0411 13.8138 25.032 13.6631 25.0232C13.6315 25.0213 13.6003 25.0195 13.5694 25.018C13.55 25.017 13.5307 25.0161 13.5115 25.0154L13.4868 24.9799C13.3407 24.7697 13.3319 24.757 13.4377 24.5177C13.575 24.2075 13.848 23.8899 14.1053 23.5907C14.2037 23.4764 14.2997 23.3648 14.3849 23.2573C15.2759 22.1339 16.1495 20.9203 16.4227 19.6092C16.7641 17.9719 16.5824 16.2871 16.4006 14.6023C16.17 12.4646 15.9394 10.3258 16.7777 8.28521C17.8075 5.7779 20.2186 4.47007 23.1209 3.30296Z" fill="#0B0803"/>
</svg>
